<svg width="400" height="400" viewBox="0 0 400 400" fill="none" xmlns="http://www.w3.org/2000/svg">
<path d="M66.8929 291H53.3929L77.9724 221.182H93.5861L118.2 291H104.7L86.052 235.5H85.5065L66.8929 291ZM67.3361 263.625H104.154V273.784H67.3361V263.625ZM143.168 221.182L161.338 276.136H162.054L180.191 221.182H194.1L169.486 291H153.872L129.293 221.182H143.168ZM218.505 291H205.005L229.585 221.182H245.199L269.812 291H256.312L237.664 235.5H237.119L218.505 291ZM218.949 263.625H255.767V273.784H218.949V263.625ZM293.408 291V221.182H319.59C324.954 221.182 329.454 222.114 333.09 223.977C336.749 225.841 339.511 228.455 341.374 231.818C343.261 235.159 344.204 239.057 344.204 243.511C344.204 247.989 343.249 251.875 341.34 255.17C339.454 258.443 336.67 260.977 332.988 262.773C329.306 264.545 324.783 265.432 319.42 265.432H300.772V254.932H317.715C320.851 254.932 323.42 254.5 325.42 253.636C327.42 252.75 328.897 251.466 329.851 249.784C330.829 248.08 331.317 245.989 331.317 243.511C331.317 241.034 330.829 238.92 329.851 237.17C328.874 235.398 327.386 234.057 325.386 233.148C323.386 232.216 320.806 231.75 317.647 231.75H306.056V291H293.408ZM329.476 259.364L346.761 291H332.647L315.67 259.364H329.476Z" fill="#02025E"/>
<path fill-rule="evenodd" clip-rule="evenodd" d="M325.191 200H345.221L200 55L54.7787 200H74.8093L200 75L325.191 200Z" fill="#02025E"/>
<path fill-rule="evenodd" clip-rule="evenodd" d="M281.348 200H301.378L200.224 99L99.0702 200H119.101L200.224 119L281.348 200Z" fill="#98FF00"/>
<rect x="175" y="151" width="20" height="20" fill="#02025E"/>
<rect x="204" y="151" width="20" height="20" fill="#02025E"/>
<rect x="175" y="180" width="20" height="20" fill="#02025E"/>
<rect x="204" y="180" width="20" height="20" fill="#02025E"/>
<path fill-rule="evenodd" clip-rule="evenodd" d="M296 83H268V100L296 128L296 100H296V83Z" fill="#02025E"/>
<path fill-rule="evenodd" clip-rule="evenodd" d="M103.333 317H55V326H103.333V317ZM297.633 317V326H345V317H297.633Z" fill="#02025E"/>
<path d="M110.239 321.526V326H108.44V315.818H110.2V319.661H110.289C110.468 319.23 110.745 318.891 111.119 318.642C111.497 318.39 111.978 318.264 112.561 318.264C113.091 318.264 113.554 318.375 113.948 318.597C114.342 318.819 114.647 319.144 114.863 319.572C115.082 319.999 115.191 320.521 115.191 321.138V326H113.391V321.416C113.391 320.902 113.259 320.503 112.994 320.218C112.732 319.93 112.364 319.786 111.89 319.786C111.572 319.786 111.287 319.855 111.035 319.994C110.786 320.13 110.591 320.327 110.448 320.586C110.309 320.844 110.239 321.158 110.239 321.526ZM125.956 326.149C125.211 326.149 124.564 325.985 124.018 325.657C123.471 325.329 123.046 324.87 122.745 324.28C122.447 323.69 122.297 323 122.297 322.212C122.297 321.423 122.447 320.732 122.745 320.138C123.046 319.545 123.471 319.085 124.018 318.756C124.564 318.428 125.211 318.264 125.956 318.264C126.702 318.264 127.349 318.428 127.895 318.756C128.442 319.085 128.865 319.545 129.163 320.138C129.465 320.732 129.616 321.423 129.616 322.212C129.616 323 129.465 323.69 129.163 324.28C128.865 324.87 128.442 325.329 127.895 325.657C127.349 325.985 126.702 326.149 125.956 326.149ZM125.966 324.707C126.371 324.707 126.709 324.596 126.981 324.374C127.252 324.149 127.455 323.847 127.587 323.469C127.723 323.092 127.791 322.671 127.791 322.207C127.791 321.739 127.723 321.317 127.587 320.939C127.455 320.558 127.252 320.254 126.981 320.029C126.709 319.804 126.371 319.691 125.966 319.691C125.552 319.691 125.207 319.804 124.932 320.029C124.661 320.254 124.457 320.558 124.321 320.939C124.188 321.317 124.122 321.739 124.122 322.207C124.122 322.671 124.188 323.092 124.321 323.469C124.457 323.847 124.661 324.149 124.932 324.374C125.207 324.596 125.552 324.707 125.966 324.707ZM141.61 322.788V318.364H143.41V326H141.665V324.643H141.585C141.413 325.07 141.13 325.42 140.735 325.692C140.344 325.964 139.862 326.099 139.289 326.099C138.788 326.099 138.346 325.988 137.961 325.766C137.58 325.541 137.282 325.214 137.066 324.787C136.851 324.356 136.743 323.836 136.743 323.226V318.364H138.543V322.947C138.543 323.431 138.675 323.816 138.941 324.101C139.206 324.386 139.554 324.528 139.985 324.528C140.25 324.528 140.507 324.464 140.755 324.335C141.004 324.205 141.208 324.013 141.367 323.758C141.529 323.499 141.61 323.176 141.61 322.788ZM156.896 320.382L155.256 320.561C155.209 320.395 155.128 320.24 155.012 320.094C154.899 319.948 154.747 319.83 154.555 319.741C154.362 319.651 154.127 319.607 153.849 319.607C153.474 319.607 153.159 319.688 152.904 319.85C152.652 320.013 152.528 320.223 152.531 320.482C152.528 320.704 152.609 320.884 152.775 321.023C152.944 321.163 153.222 321.277 153.61 321.366L154.913 321.645C155.635 321.801 156.172 322.048 156.523 322.386C156.878 322.724 157.057 323.166 157.06 323.713C157.057 324.194 156.916 324.618 156.638 324.986C156.363 325.35 155.98 325.635 155.489 325.841C154.999 326.046 154.435 326.149 153.799 326.149C152.864 326.149 152.112 325.954 151.542 325.562C150.972 325.168 150.632 324.62 150.523 323.917L152.278 323.748C152.357 324.093 152.526 324.353 152.785 324.528C153.043 324.704 153.38 324.792 153.794 324.792C154.221 324.792 154.564 324.704 154.823 324.528C155.085 324.353 155.216 324.136 155.216 323.877C155.216 323.658 155.131 323.478 154.962 323.335C154.796 323.193 154.538 323.083 154.187 323.007L152.884 322.734C152.152 322.581 151.61 322.324 151.258 321.963C150.907 321.598 150.733 321.138 150.736 320.581C150.733 320.11 150.861 319.703 151.119 319.358C151.381 319.01 151.744 318.741 152.208 318.553C152.675 318.36 153.214 318.264 153.824 318.264C154.719 318.264 155.423 318.455 155.937 318.836C156.454 319.217 156.774 319.732 156.896 320.382ZM164.144 326V318.364H165.944V326H164.144ZM165.049 317.28C164.764 317.28 164.519 317.185 164.313 316.996C164.108 316.804 164.005 316.574 164.005 316.305C164.005 316.034 164.108 315.803 164.313 315.614C164.519 315.422 164.764 315.326 165.049 315.326C165.337 315.326 165.583 315.422 165.785 315.614C165.99 315.803 166.093 316.034 166.093 316.305C166.093 316.574 165.99 316.804 165.785 316.996C165.583 317.185 165.337 317.28 165.049 317.28ZM175.194 321.526V326H173.395V318.364H175.115V319.661H175.204C175.38 319.234 175.66 318.894 176.044 318.642C176.432 318.39 176.911 318.264 177.481 318.264C178.008 318.264 178.467 318.377 178.858 318.602C179.253 318.828 179.558 319.154 179.773 319.582C179.992 320.009 180.1 320.528 180.096 321.138V326H178.297V321.416C178.297 320.906 178.164 320.506 177.899 320.218C177.637 319.93 177.274 319.786 176.81 319.786C176.495 319.786 176.215 319.855 175.97 319.994C175.728 320.13 175.537 320.327 175.398 320.586C175.262 320.844 175.194 321.158 175.194 321.526ZM190.847 329.023C190.201 329.023 189.645 328.935 189.181 328.759C188.717 328.587 188.345 328.355 188.063 328.063C187.781 327.772 187.586 327.448 187.476 327.094L189.097 326.701C189.17 326.85 189.276 326.998 189.415 327.143C189.554 327.293 189.742 327.415 189.977 327.511C190.216 327.611 190.515 327.661 190.877 327.661C191.387 327.661 191.81 327.536 192.144 327.288C192.479 327.042 192.647 326.638 192.647 326.075V324.628H192.557C192.464 324.813 192.328 325.004 192.149 325.2C191.974 325.395 191.74 325.559 191.448 325.692C191.16 325.824 190.797 325.891 190.36 325.891C189.773 325.891 189.241 325.753 188.764 325.478C188.29 325.2 187.912 324.785 187.63 324.235C187.352 323.682 187.213 322.989 187.213 322.157C187.213 321.318 187.352 320.611 187.63 320.034C187.912 319.454 188.292 319.015 188.769 318.717C189.246 318.415 189.778 318.264 190.365 318.264C190.812 318.264 191.18 318.34 191.468 318.493C191.76 318.642 191.992 318.823 192.164 319.035C192.337 319.244 192.468 319.441 192.557 319.626H192.657V318.364H194.431V326.124C194.431 326.777 194.276 327.317 193.964 327.745C193.653 328.173 193.227 328.492 192.686 328.705C192.146 328.917 191.533 329.023 190.847 329.023ZM190.862 324.479C191.243 324.479 191.568 324.386 191.836 324.2C192.105 324.015 192.309 323.748 192.448 323.4C192.587 323.052 192.657 322.634 192.657 322.147C192.657 321.666 192.587 321.246 192.448 320.884C192.312 320.523 192.11 320.243 191.841 320.044C191.576 319.842 191.25 319.741 190.862 319.741C190.461 319.741 190.126 319.845 189.858 320.054C189.589 320.263 189.387 320.549 189.251 320.914C189.115 321.275 189.047 321.686 189.047 322.147C189.047 322.614 189.115 323.024 189.251 323.375C189.39 323.723 189.594 323.995 189.863 324.19C190.134 324.383 190.467 324.479 190.862 324.479ZM216.984 320.382L215.343 320.561C215.297 320.395 215.216 320.24 215.1 320.094C214.987 319.948 214.835 319.83 214.642 319.741C214.45 319.651 214.215 319.607 213.936 319.607C213.562 319.607 213.247 319.688 212.992 319.85C212.74 320.013 212.616 320.223 212.619 320.482C212.616 320.704 212.697 320.884 212.863 321.023C213.032 321.163 213.31 321.277 213.698 321.366L215 321.645C215.723 321.801 216.26 322.048 216.611 322.386C216.966 322.724 217.145 323.166 217.148 323.713C217.145 324.194 217.004 324.618 216.726 324.986C216.45 325.35 216.068 325.635 215.577 325.841C215.087 326.046 214.523 326.149 213.887 326.149C212.952 326.149 212.2 325.954 211.63 325.562C211.06 325.168 210.72 324.62 210.61 323.917L212.365 323.748C212.445 324.093 212.614 324.353 212.873 324.528C213.131 324.704 213.467 324.792 213.882 324.792C214.309 324.792 214.652 324.704 214.911 324.528C215.173 324.353 215.304 324.136 215.304 323.877C215.304 323.658 215.219 323.478 215.05 323.335C214.884 323.193 214.626 323.083 214.275 323.007L212.972 322.734C212.24 322.581 211.698 322.324 211.346 321.963C210.995 321.598 210.821 321.138 210.824 320.581C210.821 320.11 210.949 319.703 211.207 319.358C211.469 319.01 211.832 318.741 212.296 318.553C212.763 318.36 213.302 318.264 213.912 318.264C214.807 318.264 215.511 318.455 216.025 318.836C216.542 319.217 216.861 319.732 216.984 320.382ZM227.613 326.149C226.847 326.149 226.186 325.99 225.629 325.672C225.076 325.35 224.65 324.896 224.351 324.31C224.053 323.72 223.904 323.025 223.904 322.227C223.904 321.441 224.053 320.752 224.351 320.158C224.653 319.562 225.074 319.098 225.614 318.766C226.154 318.432 226.789 318.264 227.518 318.264C227.989 318.264 228.433 318.34 228.851 318.493C229.272 318.642 229.643 318.874 229.964 319.189C230.289 319.504 230.544 319.905 230.73 320.392C230.916 320.876 231.008 321.453 231.008 322.122V322.674H224.749V321.461H229.283C229.28 321.116 229.205 320.81 229.06 320.541C228.914 320.269 228.71 320.056 228.448 319.9C228.19 319.744 227.888 319.666 227.543 319.666C227.175 319.666 226.852 319.756 226.574 319.935C226.295 320.11 226.078 320.342 225.922 320.631C225.77 320.916 225.692 321.229 225.689 321.57V322.629C225.689 323.073 225.77 323.455 225.932 323.773C226.095 324.088 226.322 324.33 226.614 324.499C226.905 324.664 227.247 324.747 227.638 324.747C227.9 324.747 228.136 324.711 228.349 324.638C228.561 324.562 228.745 324.451 228.9 324.305C229.056 324.159 229.174 323.978 229.253 323.763L230.934 323.952C230.828 324.396 230.626 324.784 230.327 325.115C230.032 325.443 229.654 325.698 229.194 325.881C228.733 326.06 228.206 326.149 227.613 326.149ZM238.131 326V318.364H239.876V319.636H239.956C240.095 319.196 240.333 318.856 240.671 318.617C241.013 318.375 241.402 318.254 241.84 318.254C241.939 318.254 242.05 318.259 242.173 318.269C242.299 318.276 242.403 318.287 242.486 318.304V319.96C242.41 319.933 242.289 319.91 242.123 319.89C241.961 319.867 241.803 319.855 241.651 319.855C241.323 319.855 241.028 319.926 240.766 320.069C240.507 320.208 240.304 320.402 240.154 320.651C240.005 320.899 239.931 321.186 239.931 321.511V326H238.131ZM256.335 318.364L253.616 326H251.627L248.908 318.364H250.827L252.582 324.036H252.661L254.421 318.364H256.335ZM263.181 326V318.364H264.98V326H263.181ZM264.085 317.28C263.8 317.28 263.555 317.185 263.35 316.996C263.144 316.804 263.041 316.574 263.041 316.305C263.041 316.034 263.144 315.803 263.35 315.614C263.555 315.422 263.8 315.326 264.085 315.326C264.374 315.326 264.619 315.422 264.821 315.614C265.027 315.803 265.129 316.034 265.129 316.305C265.129 316.574 265.027 316.804 264.821 316.996C264.619 317.185 264.374 317.28 264.085 317.28ZM275.762 326.149C275 326.149 274.345 325.982 273.798 325.647C273.255 325.312 272.835 324.85 272.54 324.26C272.249 323.667 272.103 322.984 272.103 322.212C272.103 321.436 272.252 320.752 272.55 320.158C272.849 319.562 273.27 319.098 273.813 318.766C274.36 318.432 275.006 318.264 275.752 318.264C276.372 318.264 276.92 318.379 277.398 318.607C277.878 318.833 278.261 319.152 278.546 319.567C278.831 319.978 278.993 320.458 279.033 321.009H277.313C277.243 320.641 277.078 320.334 276.816 320.089C276.557 319.84 276.211 319.716 275.777 319.716C275.409 319.716 275.086 319.815 274.807 320.014C274.529 320.21 274.312 320.491 274.156 320.859C274.004 321.227 273.927 321.668 273.927 322.182C273.927 322.702 274.004 323.15 274.156 323.524C274.309 323.895 274.522 324.182 274.797 324.384C275.076 324.583 275.402 324.683 275.777 324.683C276.042 324.683 276.279 324.633 276.488 324.533C276.7 324.431 276.877 324.283 277.02 324.091C277.162 323.899 277.26 323.665 277.313 323.39H279.033C278.99 323.93 278.831 324.409 278.556 324.827C278.281 325.241 277.906 325.566 277.432 325.801C276.958 326.033 276.402 326.149 275.762 326.149ZM289.492 326.149C288.726 326.149 288.065 325.99 287.508 325.672C286.955 325.35 286.529 324.896 286.23 324.31C285.932 323.72 285.783 323.025 285.783 322.227C285.783 321.441 285.932 320.752 286.23 320.158C286.532 319.562 286.953 319.098 287.493 318.766C288.033 318.432 288.668 318.264 289.397 318.264C289.868 318.264 290.312 318.34 290.73 318.493C291.151 318.642 291.522 318.874 291.843 319.189C292.168 319.504 292.423 319.905 292.609 320.392C292.795 320.876 292.887 321.453 292.887 322.122V322.674H286.628V321.461H291.162C291.159 321.116 291.084 320.81 290.938 320.541C290.793 320.269 290.589 320.056 290.327 319.9C290.068 319.744 289.767 319.666 289.422 319.666C289.054 319.666 288.731 319.756 288.453 319.935C288.174 320.11 287.957 320.342 287.801 320.631C287.649 320.916 287.571 321.229 287.568 321.57V322.629C287.568 323.073 287.649 323.455 287.811 323.773C287.974 324.088 288.201 324.33 288.492 324.499C288.784 324.664 289.125 324.747 289.517 324.747C289.778 324.747 290.015 324.711 290.228 324.638C290.44 324.562 290.624 324.451 290.779 324.305C290.935 324.159 291.053 323.978 291.132 323.763L292.813 323.952C292.707 324.396 292.505 324.784 292.206 325.115C291.911 325.443 291.533 325.698 291.073 325.881C290.612 326.06 290.085 326.149 289.492 326.149Z" fill="#02025E"/>
</svg>
