<svg width="400" height="400" viewBox="0 0 400 400" fill="none" xmlns="http://www.w3.org/2000/svg">
<g clip-path="url(#clip0_2_74)">
<path d="M66.8929 280H53.3929L77.9724 210.182H93.5861L118.2 280H104.7L86.052 224.5H85.5065L66.8929 280ZM67.3361 252.625H104.154V262.784H67.3361V252.625ZM143.168 210.182L161.338 265.136H162.054L180.191 210.182H194.1L169.486 280H153.872L129.293 210.182H143.168ZM218.505 280H205.005L229.585 210.182H245.199L269.812 280H256.312L237.664 224.5H237.119L218.505 280ZM218.949 252.625H255.767V262.784H218.949V252.625ZM293.408 280V210.182H319.59C324.954 210.182 329.454 211.114 333.09 212.977C336.749 214.841 339.511 217.455 341.374 220.818C343.261 224.159 344.204 228.057 344.204 232.511C344.204 236.989 343.249 240.875 341.34 244.17C339.454 247.443 336.67 249.977 332.988 251.773C329.306 253.545 324.783 254.432 319.42 254.432H300.772V243.932H317.715C320.851 243.932 323.42 243.5 325.42 242.636C327.42 241.75 328.897 240.466 329.851 238.784C330.829 237.08 331.317 234.989 331.317 232.511C331.317 230.034 330.829 227.92 329.851 226.17C328.874 224.398 327.386 223.057 325.386 222.148C323.386 221.216 320.806 220.75 317.647 220.75H306.056V280H293.408ZM329.476 248.364L346.761 280H332.647L315.67 248.364H329.476Z" fill="#02025E"/>
<path fill-rule="evenodd" clip-rule="evenodd" d="M325.191 200H345.221L200 55L54.7787 200H74.8092L200 75L325.191 200Z" fill="black"/>
<path fill-rule="evenodd" clip-rule="evenodd" d="M281.348 200H301.378L200.224 99L99.0702 200H119.101L200.224 119L281.348 200Z" fill="black"/>
<rect x="175" y="151" width="20" height="20" fill="black"/>
<rect x="204" y="151" width="20" height="20" fill="black"/>
<rect x="175" y="180" width="20" height="20" fill="black"/>
<rect x="204" y="180" width="20" height="20" fill="black"/>
<path fill-rule="evenodd" clip-rule="evenodd" d="M296 83H267V100L296 127.75L296 127.75V100H296V83Z" fill="black"/>
<path fill-rule="evenodd" clip-rule="evenodd" d="M103.333 300H55V309H103.333V300ZM297.633 300V309H345V300H297.633Z" fill="black"/>
<path d="M110.239 304.526V309H108.44V298.818H110.2V302.661H110.289C110.468 302.23 110.745 301.891 111.119 301.642C111.497 301.39 111.978 301.264 112.561 301.264C113.091 301.264 113.554 301.375 113.948 301.597C114.342 301.819 114.647 302.144 114.863 302.572C115.082 302.999 115.191 303.521 115.191 304.138V309H113.391V304.416C113.391 303.902 113.259 303.503 112.994 303.218C112.732 302.93 112.364 302.786 111.89 302.786C111.572 302.786 111.287 302.855 111.035 302.994C110.786 303.13 110.591 303.327 110.448 303.586C110.309 303.844 110.239 304.158 110.239 304.526ZM125.956 309.149C125.211 309.149 124.564 308.985 124.018 308.657C123.471 308.329 123.046 307.87 122.745 307.28C122.447 306.69 122.297 306 122.297 305.212C122.297 304.423 122.447 303.732 122.745 303.138C123.046 302.545 123.471 302.085 124.018 301.756C124.564 301.428 125.211 301.264 125.956 301.264C126.702 301.264 127.349 301.428 127.895 301.756C128.442 302.085 128.865 302.545 129.163 303.138C129.465 303.732 129.616 304.423 129.616 305.212C129.616 306 129.465 306.69 129.163 307.28C128.865 307.87 128.442 308.329 127.895 308.657C127.349 308.985 126.702 309.149 125.956 309.149ZM125.966 307.707C126.371 307.707 126.709 307.596 126.981 307.374C127.252 307.149 127.455 306.847 127.587 306.469C127.723 306.092 127.791 305.671 127.791 305.207C127.791 304.739 127.723 304.317 127.587 303.939C127.455 303.558 127.252 303.254 126.981 303.029C126.709 302.804 126.371 302.691 125.966 302.691C125.552 302.691 125.207 302.804 124.932 303.029C124.661 303.254 124.457 303.558 124.321 303.939C124.188 304.317 124.122 304.739 124.122 305.207C124.122 305.671 124.188 306.092 124.321 306.469C124.457 306.847 124.661 307.149 124.932 307.374C125.207 307.596 125.552 307.707 125.966 307.707ZM141.61 305.788V301.364H143.41V309H141.665V307.643H141.585C141.413 308.07 141.13 308.42 140.735 308.692C140.344 308.964 139.862 309.099 139.289 309.099C138.788 309.099 138.346 308.988 137.961 308.766C137.58 308.541 137.282 308.214 137.066 307.787C136.851 307.356 136.743 306.836 136.743 306.226V301.364H138.543V305.947C138.543 306.431 138.675 306.816 138.941 307.101C139.206 307.386 139.554 307.528 139.985 307.528C140.25 307.528 140.507 307.464 140.755 307.335C141.004 307.205 141.208 307.013 141.367 306.758C141.529 306.499 141.61 306.176 141.61 305.788ZM156.896 303.382L155.256 303.561C155.209 303.395 155.128 303.24 155.012 303.094C154.899 302.948 154.747 302.83 154.555 302.741C154.362 302.651 154.127 302.607 153.849 302.607C153.474 302.607 153.159 302.688 152.904 302.85C152.652 303.013 152.528 303.223 152.531 303.482C152.528 303.704 152.609 303.884 152.775 304.023C152.944 304.163 153.222 304.277 153.61 304.366L154.913 304.645C155.635 304.801 156.172 305.048 156.523 305.386C156.878 305.724 157.057 306.166 157.06 306.713C157.057 307.194 156.916 307.618 156.638 307.986C156.363 308.35 155.98 308.635 155.489 308.841C154.999 309.046 154.435 309.149 153.799 309.149C152.864 309.149 152.112 308.954 151.542 308.562C150.972 308.168 150.632 307.62 150.523 306.917L152.278 306.748C152.357 307.093 152.526 307.353 152.785 307.528C153.043 307.704 153.38 307.792 153.794 307.792C154.221 307.792 154.564 307.704 154.823 307.528C155.085 307.353 155.216 307.136 155.216 306.877C155.216 306.658 155.131 306.478 154.962 306.335C154.796 306.193 154.538 306.083 154.187 306.007L152.884 305.734C152.152 305.581 151.61 305.324 151.258 304.963C150.907 304.598 150.733 304.138 150.736 303.581C150.733 303.11 150.861 302.703 151.119 302.358C151.381 302.01 151.744 301.741 152.208 301.553C152.675 301.36 153.214 301.264 153.824 301.264C154.719 301.264 155.423 301.455 155.937 301.836C156.454 302.217 156.774 302.732 156.896 303.382ZM164.144 309V301.364H165.944V309H164.144ZM165.049 300.28C164.764 300.28 164.519 300.185 164.313 299.996C164.108 299.804 164.005 299.574 164.005 299.305C164.005 299.034 164.108 298.803 164.313 298.614C164.519 298.422 164.764 298.326 165.049 298.326C165.337 298.326 165.583 298.422 165.785 298.614C165.99 298.803 166.093 299.034 166.093 299.305C166.093 299.574 165.99 299.804 165.785 299.996C165.583 300.185 165.337 300.28 165.049 300.28ZM175.194 304.526V309H173.395V301.364H175.115V302.661H175.204C175.38 302.234 175.66 301.894 176.044 301.642C176.432 301.39 176.911 301.264 177.481 301.264C178.008 301.264 178.467 301.377 178.858 301.602C179.253 301.828 179.558 302.154 179.773 302.582C179.992 303.009 180.1 303.528 180.096 304.138V309H178.297V304.416C178.297 303.906 178.164 303.506 177.899 303.218C177.637 302.93 177.274 302.786 176.81 302.786C176.495 302.786 176.215 302.855 175.97 302.994C175.728 303.13 175.537 303.327 175.398 303.586C175.262 303.844 175.194 304.158 175.194 304.526ZM190.847 312.023C190.201 312.023 189.645 311.935 189.181 311.759C188.717 311.587 188.345 311.355 188.063 311.063C187.781 310.772 187.586 310.448 187.476 310.094L189.097 309.701C189.17 309.85 189.276 309.998 189.415 310.143C189.554 310.293 189.742 310.415 189.977 310.511C190.216 310.611 190.515 310.661 190.877 310.661C191.387 310.661 191.81 310.536 192.144 310.288C192.479 310.042 192.647 309.638 192.647 309.075V307.628H192.557C192.464 307.813 192.328 308.004 192.149 308.2C191.974 308.395 191.74 308.559 191.448 308.692C191.16 308.824 190.797 308.891 190.36 308.891C189.773 308.891 189.241 308.753 188.764 308.478C188.29 308.2 187.912 307.785 187.63 307.235C187.352 306.682 187.213 305.989 187.213 305.157C187.213 304.318 187.352 303.611 187.63 303.034C187.912 302.454 188.292 302.015 188.769 301.717C189.246 301.415 189.778 301.264 190.365 301.264C190.812 301.264 191.18 301.34 191.468 301.493C191.76 301.642 191.992 301.823 192.164 302.035C192.337 302.244 192.468 302.441 192.557 302.626H192.657V301.364H194.431V309.124C194.431 309.777 194.276 310.317 193.964 310.745C193.653 311.173 193.227 311.492 192.686 311.705C192.146 311.917 191.533 312.023 190.847 312.023ZM190.862 307.479C191.243 307.479 191.568 307.386 191.836 307.2C192.105 307.015 192.309 306.748 192.448 306.4C192.587 306.052 192.657 305.634 192.657 305.147C192.657 304.666 192.587 304.246 192.448 303.884C192.312 303.523 192.11 303.243 191.841 303.044C191.576 302.842 191.25 302.741 190.862 302.741C190.461 302.741 190.126 302.845 189.858 303.054C189.589 303.263 189.387 303.549 189.251 303.914C189.115 304.275 189.047 304.686 189.047 305.147C189.047 305.614 189.115 306.024 189.251 306.375C189.39 306.723 189.594 306.995 189.863 307.19C190.134 307.383 190.467 307.479 190.862 307.479ZM216.984 303.382L215.343 303.561C215.297 303.395 215.216 303.24 215.1 303.094C214.987 302.948 214.835 302.83 214.642 302.741C214.45 302.651 214.215 302.607 213.936 302.607C213.562 302.607 213.247 302.688 212.992 302.85C212.74 303.013 212.616 303.223 212.619 303.482C212.616 303.704 212.697 303.884 212.863 304.023C213.032 304.163 213.31 304.277 213.698 304.366L215 304.645C215.723 304.801 216.26 305.048 216.611 305.386C216.966 305.724 217.145 306.166 217.148 306.713C217.145 307.194 217.004 307.618 216.726 307.986C216.45 308.35 216.068 308.635 215.577 308.841C215.087 309.046 214.523 309.149 213.887 309.149C212.952 309.149 212.2 308.954 211.63 308.562C211.06 308.168 210.72 307.62 210.61 306.917L212.365 306.748C212.445 307.093 212.614 307.353 212.873 307.528C213.131 307.704 213.467 307.792 213.882 307.792C214.309 307.792 214.652 307.704 214.911 307.528C215.173 307.353 215.304 307.136 215.304 306.877C215.304 306.658 215.219 306.478 215.05 306.335C214.884 306.193 214.626 306.083 214.275 306.007L212.972 305.734C212.24 305.581 211.698 305.324 211.346 304.963C210.995 304.598 210.821 304.138 210.824 303.581C210.821 303.11 210.949 302.703 211.207 302.358C211.469 302.01 211.832 301.741 212.296 301.553C212.763 301.36 213.302 301.264 213.912 301.264C214.807 301.264 215.511 301.455 216.025 301.836C216.542 302.217 216.861 302.732 216.984 303.382ZM227.613 309.149C226.847 309.149 226.186 308.99 225.629 308.672C225.076 308.35 224.65 307.896 224.351 307.31C224.053 306.72 223.904 306.025 223.904 305.227C223.904 304.441 224.053 303.752 224.351 303.158C224.653 302.562 225.074 302.098 225.614 301.766C226.154 301.432 226.789 301.264 227.518 301.264C227.989 301.264 228.433 301.34 228.851 301.493C229.272 301.642 229.643 301.874 229.964 302.189C230.289 302.504 230.544 302.905 230.73 303.392C230.916 303.876 231.008 304.453 231.008 305.122V305.674H224.749V304.461H229.283C229.28 304.116 229.205 303.81 229.06 303.541C228.914 303.269 228.71 303.056 228.448 302.9C228.19 302.744 227.888 302.666 227.543 302.666C227.175 302.666 226.852 302.756 226.574 302.935C226.295 303.11 226.078 303.342 225.922 303.631C225.77 303.916 225.692 304.229 225.689 304.57V305.629C225.689 306.073 225.77 306.455 225.932 306.773C226.095 307.088 226.322 307.33 226.614 307.499C226.905 307.664 227.247 307.747 227.638 307.747C227.9 307.747 228.136 307.711 228.349 307.638C228.561 307.562 228.745 307.451 228.9 307.305C229.056 307.159 229.174 306.978 229.253 306.763L230.934 306.952C230.828 307.396 230.626 307.784 230.327 308.115C230.032 308.443 229.654 308.698 229.194 308.881C228.733 309.06 228.206 309.149 227.613 309.149ZM238.131 309V301.364H239.876V302.636H239.956C240.095 302.196 240.333 301.856 240.671 301.617C241.013 301.375 241.402 301.254 241.84 301.254C241.939 301.254 242.05 301.259 242.173 301.269C242.299 301.276 242.403 301.287 242.486 301.304V302.96C242.41 302.933 242.289 302.91 242.123 302.89C241.961 302.867 241.803 302.855 241.651 302.855C241.323 302.855 241.028 302.926 240.766 303.069C240.507 303.208 240.304 303.402 240.154 303.651C240.005 303.899 239.931 304.186 239.931 304.511V309H238.131ZM256.335 301.364L253.616 309H251.627L248.908 301.364H250.827L252.582 307.036H252.661L254.421 301.364H256.335ZM263.181 309V301.364H264.98V309H263.181ZM264.085 300.28C263.8 300.28 263.555 300.185 263.35 299.996C263.144 299.804 263.041 299.574 263.041 299.305C263.041 299.034 263.144 298.803 263.35 298.614C263.555 298.422 263.8 298.326 264.085 298.326C264.374 298.326 264.619 298.422 264.821 298.614C265.027 298.803 265.129 299.034 265.129 299.305C265.129 299.574 265.027 299.804 264.821 299.996C264.619 300.185 264.374 300.28 264.085 300.28ZM275.762 309.149C275 309.149 274.345 308.982 273.798 308.647C273.255 308.312 272.835 307.85 272.54 307.26C272.249 306.667 272.103 305.984 272.103 305.212C272.103 304.436 272.252 303.752 272.55 303.158C272.849 302.562 273.27 302.098 273.813 301.766C274.36 301.432 275.006 301.264 275.752 301.264C276.372 301.264 276.92 301.379 277.398 301.607C277.878 301.833 278.261 302.152 278.546 302.567C278.831 302.978 278.993 303.458 279.033 304.009H277.313C277.243 303.641 277.078 303.334 276.816 303.089C276.557 302.84 276.211 302.716 275.777 302.716C275.409 302.716 275.086 302.815 274.807 303.014C274.529 303.21 274.312 303.491 274.156 303.859C274.004 304.227 273.927 304.668 273.927 305.182C273.927 305.702 274.004 306.15 274.156 306.524C274.309 306.895 274.522 307.182 274.797 307.384C275.076 307.583 275.402 307.683 275.777 307.683C276.042 307.683 276.279 307.633 276.488 307.533C276.7 307.431 276.877 307.283 277.02 307.091C277.162 306.899 277.26 306.665 277.313 306.39H279.033C278.99 306.93 278.831 307.409 278.556 307.827C278.281 308.241 277.906 308.566 277.432 308.801C276.958 309.033 276.402 309.149 275.762 309.149ZM289.492 309.149C288.726 309.149 288.065 308.99 287.508 308.672C286.955 308.35 286.529 307.896 286.23 307.31C285.932 306.72 285.783 306.025 285.783 305.227C285.783 304.441 285.932 303.752 286.23 303.158C286.532 302.562 286.953 302.098 287.493 301.766C288.033 301.432 288.668 301.264 289.397 301.264C289.868 301.264 290.312 301.34 290.73 301.493C291.151 301.642 291.522 301.874 291.843 302.189C292.168 302.504 292.423 302.905 292.609 303.392C292.795 303.876 292.887 304.453 292.887 305.122V305.674H286.628V304.461H291.162C291.159 304.116 291.084 303.81 290.938 303.541C290.793 303.269 290.589 303.056 290.327 302.9C290.068 302.744 289.767 302.666 289.422 302.666C289.054 302.666 288.731 302.756 288.453 302.935C288.174 303.11 287.957 303.342 287.801 303.631C287.649 303.916 287.571 304.229 287.568 304.57V305.629C287.568 306.073 287.649 306.455 287.811 306.773C287.974 307.088 288.201 307.33 288.492 307.499C288.784 307.664 289.125 307.747 289.517 307.747C289.778 307.747 290.015 307.711 290.228 307.638C290.44 307.562 290.624 307.451 290.779 307.305C290.935 307.159 291.053 306.978 291.132 306.763L292.813 306.952C292.707 307.396 292.505 307.784 292.206 308.115C291.911 308.443 291.533 308.698 291.073 308.881C290.612 309.06 290.085 309.149 289.492 309.149Z" fill="black"/>
</g>
<defs>
<clipPath id="clip0_2_74">
<rect width="400" height="400" fill="white"/>
</clipPath>
</defs>
</svg>
