<svg width="580" height="400" viewBox="0 0 580 400" fill="none" xmlns="http://www.w3.org/2000/svg">
<g clip-path="url(#clip0_1_40)">
<path d="M294.538 233.182L312.708 288.136H313.424L331.561 233.182H345.47L320.856 303H305.242L280.663 233.182H294.538ZM401.555 303H388.055L412.635 233.182H428.249L452.862 303H439.362L420.714 247.5H420.169L401.555 303ZM401.999 275.625H438.817V285.784H401.999V275.625ZM508.138 303V233.182H534.32C539.684 233.182 544.184 234.114 547.82 235.977C551.479 237.841 554.241 240.455 556.104 243.818C557.991 247.159 558.934 251.057 558.934 255.511C558.934 259.989 557.979 263.875 556.07 267.17C554.184 270.443 551.4 272.977 547.718 274.773C544.036 276.545 539.513 277.432 534.15 277.432H515.502V266.932H532.445C535.581 266.932 538.15 266.5 540.15 265.636C542.15 264.75 543.627 263.466 544.581 261.784C545.559 260.08 546.047 257.989 546.047 255.511C546.047 253.034 545.559 250.92 544.581 249.17C543.604 247.398 542.116 246.057 540.116 245.148C538.116 244.216 535.536 243.75 532.377 243.75H520.786V303H508.138ZM544.206 271.364L561.491 303H547.377L530.4 271.364H544.206Z" fill="#02025E"/>
<path fill-rule="evenodd" clip-rule="evenodd" d="M546.412 223H566.443L421.221 78L276 223H296.031L421.221 98L546.412 223Z" fill="black"/>
<path fill-rule="evenodd" clip-rule="evenodd" d="M502.569 223H522.6L421.446 122L320.291 223H340.322L421.446 142L502.569 223Z" fill="black"/>
<rect x="396" y="174" width="20" height="20" fill="black"/>
<rect x="425" y="174" width="20" height="20" fill="black"/>
<rect x="396" y="203" width="20" height="20" fill="black"/>
<rect x="425" y="203" width="20" height="20" fill="black"/>
<path fill-rule="evenodd" clip-rule="evenodd" d="M523 113H495V130L523 158L523 130H523V113Z" fill="black"/>
<path fill-rule="evenodd" clip-rule="evenodd" d="M324.333 317H276V326H324.333V317ZM518.633 317V326H566V317H518.633Z" fill="black"/>
<path d="M330.239 321.526V326H328.44V315.818H330.2V319.661H330.289C330.468 319.23 330.745 318.891 331.119 318.642C331.497 318.39 331.978 318.264 332.561 318.264C333.091 318.264 333.554 318.375 333.948 318.597C334.342 318.819 334.647 319.144 334.863 319.572C335.082 319.999 335.191 320.521 335.191 321.138V326H333.391V321.416C333.391 320.902 333.259 320.503 332.994 320.218C332.732 319.93 332.364 319.786 331.89 319.786C331.572 319.786 331.287 319.855 331.035 319.994C330.786 320.13 330.591 320.327 330.448 320.586C330.309 320.844 330.239 321.158 330.239 321.526ZM345.956 326.149C345.211 326.149 344.564 325.985 344.018 325.657C343.471 325.329 343.046 324.87 342.745 324.28C342.447 323.69 342.297 323 342.297 322.212C342.297 321.423 342.447 320.732 342.745 320.138C343.046 319.545 343.471 319.085 344.018 318.756C344.564 318.428 345.211 318.264 345.956 318.264C346.702 318.264 347.349 318.428 347.895 318.756C348.442 319.085 348.865 319.545 349.163 320.138C349.465 320.732 349.616 321.423 349.616 322.212C349.616 323 349.465 323.69 349.163 324.28C348.865 324.87 348.442 325.329 347.895 325.657C347.349 325.985 346.702 326.149 345.956 326.149ZM345.966 324.707C346.371 324.707 346.709 324.596 346.981 324.374C347.252 324.149 347.455 323.847 347.587 323.469C347.723 323.092 347.791 322.671 347.791 322.207C347.791 321.739 347.723 321.317 347.587 320.939C347.455 320.558 347.252 320.254 346.981 320.029C346.709 319.804 346.371 319.691 345.966 319.691C345.552 319.691 345.207 319.804 344.932 320.029C344.661 320.254 344.457 320.558 344.321 320.939C344.188 321.317 344.122 321.739 344.122 322.207C344.122 322.671 344.188 323.092 344.321 323.469C344.457 323.847 344.661 324.149 344.932 324.374C345.207 324.596 345.552 324.707 345.966 324.707ZM361.61 322.788V318.364H363.41V326H361.665V324.643H361.585C361.413 325.07 361.13 325.42 360.735 325.692C360.344 325.964 359.862 326.099 359.289 326.099C358.788 326.099 358.346 325.988 357.961 325.766C357.58 325.541 357.282 325.214 357.066 324.787C356.851 324.356 356.743 323.836 356.743 323.226V318.364H358.543V322.947C358.543 323.431 358.675 323.816 358.941 324.101C359.206 324.386 359.554 324.528 359.985 324.528C360.25 324.528 360.507 324.464 360.755 324.335C361.004 324.205 361.208 324.013 361.367 323.758C361.529 323.499 361.61 323.176 361.61 322.788ZM376.896 320.382L375.256 320.561C375.209 320.395 375.128 320.24 375.012 320.094C374.899 319.948 374.747 319.83 374.555 319.741C374.362 319.651 374.127 319.607 373.849 319.607C373.474 319.607 373.159 319.688 372.904 319.85C372.652 320.013 372.528 320.223 372.531 320.482C372.528 320.704 372.609 320.884 372.775 321.023C372.944 321.163 373.222 321.277 373.61 321.366L374.913 321.645C375.635 321.801 376.172 322.048 376.523 322.386C376.878 322.724 377.057 323.166 377.06 323.713C377.057 324.194 376.916 324.618 376.638 324.986C376.363 325.35 375.98 325.635 375.489 325.841C374.999 326.046 374.435 326.149 373.799 326.149C372.864 326.149 372.112 325.954 371.542 325.562C370.972 325.168 370.632 324.62 370.523 323.917L372.278 323.748C372.357 324.093 372.526 324.353 372.785 324.528C373.043 324.704 373.38 324.792 373.794 324.792C374.221 324.792 374.564 324.704 374.823 324.528C375.085 324.353 375.216 324.136 375.216 323.877C375.216 323.658 375.131 323.478 374.962 323.335C374.796 323.193 374.538 323.083 374.187 323.007L372.884 322.734C372.152 322.581 371.61 322.324 371.258 321.963C370.907 321.598 370.733 321.138 370.736 320.581C370.733 320.11 370.861 319.703 371.119 319.358C371.381 319.01 371.744 318.741 372.208 318.553C372.675 318.36 373.214 318.264 373.824 318.264C374.719 318.264 375.423 318.455 375.937 318.836C376.454 319.217 376.774 319.732 376.896 320.382ZM384.144 326V318.364H385.944V326H384.144ZM385.049 317.28C384.764 317.28 384.519 317.185 384.313 316.996C384.108 316.804 384.005 316.574 384.005 316.305C384.005 316.034 384.108 315.803 384.313 315.614C384.519 315.422 384.764 315.326 385.049 315.326C385.337 315.326 385.583 315.422 385.785 315.614C385.99 315.803 386.093 316.034 386.093 316.305C386.093 316.574 385.99 316.804 385.785 316.996C385.583 317.185 385.337 317.28 385.049 317.28ZM395.194 321.526V326H393.395V318.364H395.115V319.661H395.204C395.38 319.234 395.66 318.894 396.044 318.642C396.432 318.39 396.911 318.264 397.481 318.264C398.008 318.264 398.467 318.377 398.858 318.602C399.253 318.828 399.558 319.154 399.773 319.582C399.992 320.009 400.1 320.528 400.096 321.138V326H398.297V321.416C398.297 320.906 398.164 320.506 397.899 320.218C397.637 319.93 397.274 319.786 396.81 319.786C396.495 319.786 396.215 319.855 395.97 319.994C395.728 320.13 395.537 320.327 395.398 320.586C395.262 320.844 395.194 321.158 395.194 321.526ZM410.847 329.023C410.201 329.023 409.645 328.935 409.181 328.759C408.717 328.587 408.345 328.355 408.063 328.063C407.781 327.772 407.586 327.448 407.476 327.094L409.097 326.701C409.17 326.85 409.276 326.998 409.415 327.143C409.554 327.293 409.742 327.415 409.977 327.511C410.216 327.611 410.515 327.661 410.877 327.661C411.387 327.661 411.81 327.536 412.144 327.288C412.479 327.042 412.647 326.638 412.647 326.075V324.628H412.557C412.464 324.813 412.328 325.004 412.149 325.2C411.974 325.395 411.74 325.559 411.448 325.692C411.16 325.824 410.797 325.891 410.36 325.891C409.773 325.891 409.241 325.753 408.764 325.478C408.29 325.2 407.912 324.785 407.63 324.235C407.352 323.682 407.213 322.989 407.213 322.157C407.213 321.318 407.352 320.611 407.63 320.034C407.912 319.454 408.292 319.015 408.769 318.717C409.246 318.415 409.778 318.264 410.365 318.264C410.812 318.264 411.18 318.34 411.468 318.493C411.76 318.642 411.992 318.823 412.164 319.035C412.337 319.244 412.468 319.441 412.557 319.626H412.657V318.364H414.431V326.124C414.431 326.777 414.276 327.317 413.964 327.745C413.653 328.173 413.227 328.492 412.686 328.705C412.146 328.917 411.533 329.023 410.847 329.023ZM410.862 324.479C411.243 324.479 411.568 324.386 411.836 324.2C412.105 324.015 412.309 323.748 412.448 323.4C412.587 323.052 412.657 322.634 412.657 322.147C412.657 321.666 412.587 321.246 412.448 320.884C412.312 320.523 412.11 320.243 411.841 320.044C411.576 319.842 411.25 319.741 410.862 319.741C410.461 319.741 410.126 319.845 409.858 320.054C409.589 320.263 409.387 320.549 409.251 320.914C409.115 321.275 409.047 321.686 409.047 322.147C409.047 322.614 409.115 323.024 409.251 323.375C409.39 323.723 409.594 323.995 409.863 324.19C410.134 324.383 410.467 324.479 410.862 324.479ZM436.984 320.382L435.343 320.561C435.297 320.395 435.216 320.24 435.1 320.094C434.987 319.948 434.835 319.83 434.642 319.741C434.45 319.651 434.215 319.607 433.936 319.607C433.562 319.607 433.247 319.688 432.992 319.85C432.74 320.013 432.616 320.223 432.619 320.482C432.616 320.704 432.697 320.884 432.863 321.023C433.032 321.163 433.31 321.277 433.698 321.366L435 321.645C435.723 321.801 436.26 322.048 436.611 322.386C436.966 322.724 437.145 323.166 437.148 323.713C437.145 324.194 437.004 324.618 436.726 324.986C436.45 325.35 436.068 325.635 435.577 325.841C435.087 326.046 434.523 326.149 433.887 326.149C432.952 326.149 432.2 325.954 431.63 325.562C431.06 325.168 430.72 324.62 430.61 323.917L432.365 323.748C432.445 324.093 432.614 324.353 432.873 324.528C433.131 324.704 433.467 324.792 433.882 324.792C434.309 324.792 434.652 324.704 434.911 324.528C435.173 324.353 435.304 324.136 435.304 323.877C435.304 323.658 435.219 323.478 435.05 323.335C434.884 323.193 434.626 323.083 434.275 323.007L432.972 322.734C432.24 322.581 431.698 322.324 431.346 321.963C430.995 321.598 430.821 321.138 430.824 320.581C430.821 320.11 430.949 319.703 431.207 319.358C431.469 319.01 431.832 318.741 432.296 318.553C432.763 318.36 433.302 318.264 433.912 318.264C434.807 318.264 435.511 318.455 436.025 318.836C436.542 319.217 436.861 319.732 436.984 320.382ZM447.613 326.149C446.847 326.149 446.186 325.99 445.629 325.672C445.076 325.35 444.65 324.896 444.351 324.31C444.053 323.72 443.904 323.025 443.904 322.227C443.904 321.441 444.053 320.752 444.351 320.158C444.653 319.562 445.074 319.098 445.614 318.766C446.154 318.432 446.789 318.264 447.518 318.264C447.989 318.264 448.433 318.34 448.851 318.493C449.272 318.642 449.643 318.874 449.964 319.189C450.289 319.504 450.544 319.905 450.73 320.392C450.916 320.876 451.008 321.453 451.008 322.122V322.674H444.749V321.461H449.283C449.28 321.116 449.205 320.81 449.06 320.541C448.914 320.269 448.71 320.056 448.448 319.9C448.19 319.744 447.888 319.666 447.543 319.666C447.175 319.666 446.852 319.756 446.574 319.935C446.295 320.11 446.078 320.342 445.922 320.631C445.77 320.916 445.692 321.229 445.689 321.57V322.629C445.689 323.073 445.77 323.455 445.932 323.773C446.095 324.088 446.322 324.33 446.614 324.499C446.905 324.664 447.247 324.747 447.638 324.747C447.9 324.747 448.136 324.711 448.349 324.638C448.561 324.562 448.745 324.451 448.9 324.305C449.056 324.159 449.174 323.978 449.253 323.763L450.934 323.952C450.828 324.396 450.626 324.784 450.327 325.115C450.032 325.443 449.654 325.698 449.194 325.881C448.733 326.06 448.206 326.149 447.613 326.149ZM458.131 326V318.364H459.876V319.636H459.956C460.095 319.196 460.333 318.856 460.671 318.617C461.013 318.375 461.402 318.254 461.84 318.254C461.939 318.254 462.05 318.259 462.173 318.269C462.299 318.276 462.403 318.287 462.486 318.304V319.96C462.41 319.933 462.289 319.91 462.123 319.89C461.961 319.867 461.803 319.855 461.651 319.855C461.323 319.855 461.028 319.926 460.766 320.069C460.507 320.208 460.304 320.402 460.154 320.651C460.005 320.899 459.931 321.186 459.931 321.511V326H458.131ZM476.335 318.364L473.616 326H471.627L468.908 318.364H470.827L472.582 324.036H472.661L474.421 318.364H476.335ZM483.181 326V318.364H484.98V326H483.181ZM484.085 317.28C483.8 317.28 483.555 317.185 483.35 316.996C483.144 316.804 483.041 316.574 483.041 316.305C483.041 316.034 483.144 315.803 483.35 315.614C483.555 315.422 483.8 315.326 484.085 315.326C484.374 315.326 484.619 315.422 484.821 315.614C485.027 315.803 485.129 316.034 485.129 316.305C485.129 316.574 485.027 316.804 484.821 316.996C484.619 317.185 484.374 317.28 484.085 317.28ZM495.762 326.149C495 326.149 494.345 325.982 493.798 325.647C493.255 325.312 492.835 324.85 492.54 324.26C492.249 323.667 492.103 322.984 492.103 322.212C492.103 321.436 492.252 320.752 492.55 320.158C492.849 319.562 493.27 319.098 493.813 318.766C494.36 318.432 495.006 318.264 495.752 318.264C496.372 318.264 496.92 318.379 497.398 318.607C497.878 318.833 498.261 319.152 498.546 319.567C498.831 319.978 498.993 320.458 499.033 321.009H497.313C497.243 320.641 497.078 320.334 496.816 320.089C496.557 319.84 496.211 319.716 495.777 319.716C495.409 319.716 495.086 319.815 494.807 320.014C494.529 320.21 494.312 320.491 494.156 320.859C494.004 321.227 493.927 321.668 493.927 322.182C493.927 322.702 494.004 323.15 494.156 323.524C494.309 323.895 494.522 324.182 494.797 324.384C495.076 324.583 495.402 324.683 495.777 324.683C496.042 324.683 496.279 324.633 496.488 324.533C496.7 324.431 496.877 324.283 497.02 324.091C497.162 323.899 497.26 323.665 497.313 323.39H499.033C498.99 323.93 498.831 324.409 498.556 324.827C498.281 325.241 497.906 325.566 497.432 325.801C496.958 326.033 496.402 326.149 495.762 326.149ZM509.492 326.149C508.726 326.149 508.065 325.99 507.508 325.672C506.955 325.35 506.529 324.896 506.23 324.31C505.932 323.72 505.783 323.025 505.783 322.227C505.783 321.441 505.932 320.752 506.23 320.158C506.532 319.562 506.953 319.098 507.493 318.766C508.033 318.432 508.668 318.264 509.397 318.264C509.868 318.264 510.312 318.34 510.73 318.493C511.151 318.642 511.522 318.874 511.843 319.189C512.168 319.504 512.423 319.905 512.609 320.392C512.795 320.876 512.887 321.453 512.887 322.122V322.674H506.628V321.461H511.162C511.159 321.116 511.084 320.81 510.938 320.541C510.793 320.269 510.589 320.056 510.327 319.9C510.068 319.744 509.767 319.666 509.422 319.666C509.054 319.666 508.731 319.756 508.453 319.935C508.174 320.11 507.957 320.342 507.801 320.631C507.649 320.916 507.571 321.229 507.568 321.57V322.629C507.568 323.073 507.649 323.455 507.811 323.773C507.974 324.088 508.201 324.33 508.492 324.499C508.784 324.664 509.125 324.747 509.517 324.747C509.778 324.747 510.015 324.711 510.228 324.638C510.44 324.562 510.624 324.451 510.779 324.305C510.935 324.159 511.053 323.978 511.132 323.763L512.813 323.952C512.707 324.396 512.505 324.784 512.206 325.115C511.911 325.443 511.533 325.698 511.073 325.881C510.612 326.06 510.085 326.149 509.492 326.149Z" fill="black"/>
<path d="M91.2984 329L33.2984 326.6C30.8984 326.6 28.3651 326.6 25.6984 326.6C23.2984 326.333 20.7651 326.2 18.0984 326.2C7.43177 326.2 -3.36823 326.467 -14.3016 327C-25.2349 327.533 -36.1682 327.8 -47.1016 327.8L-42.7016 321C-38.1682 321.267 -33.9016 321.533 -29.9016 321.8C-25.9016 321.8 -22.1682 321.8 -18.7016 321.8C-8.83489 321.8 -0.0348945 320.2 7.69844 317C15.6984 313.533 23.8318 305.933 32.0984 294.2C36.6318 288.067 42.2318 279.667 48.8984 269C55.5651 258.067 62.6318 246.467 70.0984 234.2C66.0984 233.933 62.3651 233.8 58.8984 233.8C55.4318 233.8 52.0984 233.8 48.8984 233.8C44.3651 233.8 39.5651 233.933 34.4984 234.2C29.4318 234.2 23.6984 234.467 17.2984 235H12.8984C9.69844 235 8.09844 234.6 8.09844 233.8C8.09844 232.467 9.96511 231 13.6984 229.4C17.4318 227.533 20.3651 226.333 22.4984 225.8C29.6984 224.467 37.8318 223.533 46.8984 223C56.2318 222.467 66.6318 221.933 78.0984 221.4C86.3651 207.533 94.3651 193.933 102.098 180.6C110.098 167 117.032 155 122.898 144.6C129.032 133.933 133.298 126.067 135.698 121C137.298 117.533 138.632 114.2 139.698 111C140.765 107.533 141.298 104.2 141.298 101C141.298 96.4667 139.832 92.8667 136.898 90.2C134.232 87.2667 129.032 85.6667 121.298 85.4C116.498 85.4 111.165 85.5333 105.298 85.8C99.4318 86.0667 94.0984 86.3333 89.2984 86.6L91.6984 79.8C101.832 80.3333 110.898 80.7333 118.898 81C126.898 81.2667 133.832 81.4 139.698 81.4C143.698 81.4 147.298 81.4 150.498 81.4C153.698 81.1333 156.365 81 158.498 81C164.365 80.7333 169.965 80.6 175.298 80.6C180.632 80.6 186.365 80.4667 192.498 80.2C195.432 80.2 196.765 82.0667 196.498 85.8C196.498 89.2667 196.632 93.8 196.898 99.4C199.298 130.067 201.965 159.667 204.898 188.2C208.098 216.733 212.498 246.067 218.098 276.2C220.765 289.533 224.232 299.533 228.498 306.2C232.765 312.6 237.298 316.867 242.098 319C247.165 320.867 251.965 321.8 256.498 321.8C258.365 321.8 260.098 321.8 261.698 321.8C263.298 321.533 264.765 321.4 266.098 321.4L262.498 327.8C258.498 327.533 255.032 327.4 252.098 327.4C249.165 327.4 246.498 327.4 244.098 327.4C238.232 327.4 233.698 327.533 230.498 327.8C227.565 328.067 223.832 328.067 219.298 327.8C205.432 327 191.965 326.6 178.898 326.6C167.432 326.6 155.698 327 143.698 327.8L147.698 321.4C151.432 321.4 155.965 321.4 161.298 321.4C166.632 321.133 171.298 319.933 175.298 317.8C179.565 315.667 181.698 311.667 181.698 305.8C181.698 299.133 181.165 289.667 180.098 277.4C179.032 265.133 177.565 251.533 175.698 236.6C173.832 221.4 171.832 206.333 169.698 191.4C167.832 176.467 165.965 163 164.098 151C162.232 138.733 160.632 129.533 159.298 123.4C148.898 139.667 138.765 155.933 128.898 172.2C119.032 188.2 109.298 204.2 99.6984 220.2L122.098 219C128.232 218.733 134.765 218.2 141.698 217.4C148.632 216.333 154.765 215.267 160.098 214.2C165.432 212.867 168.765 211.667 170.098 210.6C170.632 210.067 171.165 209.8 171.698 209.8C172.765 209.8 172.632 210.867 171.298 213C169.432 216.733 165.832 220.333 160.498 223.8C155.432 227.267 151.032 229.933 147.298 231.8C142.498 233.933 137.565 235 132.498 235C127.698 235 122.632 235 117.298 235C112.232 235 107.565 235 103.298 235C99.2984 234.733 95.4318 234.6 91.6984 234.6C87.6984 241.533 83.8318 248.467 80.0984 255.4C76.3651 262.333 72.6318 269.267 68.8984 276.2C65.4318 282.867 62.8984 288.6 61.2984 293.4C59.6984 298.2 58.8984 302.333 58.8984 305.8C58.8984 313 61.5651 317.667 66.8984 319.8C72.2318 321.667 77.9651 322.6 84.0984 322.6C86.2318 322.6 88.2318 322.6 90.0984 322.6C92.2318 322.333 94.2318 322.2 96.0984 322.2L91.2984 329Z" fill="#02025E"/>
</g>
<defs>
<clipPath id="clip0_1_40">
<rect width="580" height="400" fill="white"/>
</clipPath>
</defs>
</svg>
